<svg xmlns="http://www.w3.org/2000/svg" xmlns:xlink="http://www.w3.org/1999/xlink" width="20" zoomAndPan="magnify" viewBox="0 0 375 374.999991" height="20" preserveAspectRatio="xMidYMid meet" version="1.0">
<path fill="#ffffff" d="M 242.53125 149.507812 L 210.84375 214.644531 L 214.675781 226.636719 L 130.054688 130.65625 L 195.371094 191.945312 L 215.84375 149.507812 Z M 242.53125 149.507812 " fill-opacity="1" fill-rule="evenodd"/>
<path fill="#ffffff" d="M 130.054688 130.65625 L 200.902344 234.140625 L 190.988281 253.65625 Z M 130.054688 130.65625 " fill-opacity="1" fill-rule="evenodd"/>
<path fill="#ffffff" d="M 201.546875 267.214844 C 154.050781 267.214844 115.542969 228.726562 115.542969 181.25 C 115.542969 133.773438 154.050781 95.285156 201.546875 95.285156 C 226.144531 95.285156 248.324219 105.609375 264.003906 122.148438 C 246.542969 100.128906 219.554688 85.996094 189.257812 85.996094 C 136.628906 85.996094 93.960938 128.644531 93.960938 181.25 C 93.960938 233.855469 136.628906 276.503906 189.257812 276.503906 C 219.554688 276.503906 246.542969 262.371094 264.003906 240.351562 C 248.324219 256.890625 226.144531 267.214844 201.546875 267.214844 " fill-opacity="1" fill-rule="nonzero"/>
<path fill="#4e96cf" d="M 204.058594 104.113281 C 180.527344 104.113281 159.457031 114.636719 145.300781 131.238281 C 159.097656 118.335938 177.636719 110.433594 198.019531 110.433594 C 240.644531 110.433594 275.199219 144.96875 275.199219 187.570312 C 275.199219 206.652344 268.265625 224.109375 256.785156 237.574219 C 271.832031 223.496094 281.234375 203.472656 281.234375 181.25 C 281.234375 138.644531 246.683594 104.113281 204.058594 104.113281 " fill-opacity="1" fill-rule="nonzero"/>
<path fill="#ffffff" d="M 201.546875 88.910156 C 154.050781 88.910156 115.542969 127.398438 115.542969 174.875 C 115.542969 222.351562 154.050781 260.839844 201.546875 260.839844 C 226.144531 260.839844 248.324219 250.519531 264.003906 233.976562 C 246.542969 256 219.554688 270.128906 189.257812 270.128906 C 136.628906 270.128906 93.960938 227.484375 93.960938 174.875 C 93.960938 122.269531 136.628906 79.625 189.257812 79.625 C 219.554688 79.625 246.542969 93.753906 264.003906 115.777344 C 248.324219 99.234375 226.144531 88.910156 201.546875 88.910156 " fill-opacity="1" fill-rule="nonzero"/>
<path fill="#4e96cf" d="M 204.058594 252.015625 C 180.527344 252.015625 159.457031 241.488281 145.300781 224.886719 C 159.097656 237.792969 177.636719 245.691406 198.019531 245.691406 C 240.644531 245.691406 275.199219 211.160156 275.199219 168.554688 C 275.199219 149.476562 268.265625 132.019531 256.785156 118.554688 C 271.832031 132.628906 281.234375 152.652344 281.234375 174.875 C 281.234375 217.480469 246.683594 252.015625 204.058594 252.015625 " fill-opacity="1" fill-rule="nonzero"/>
</svg>