<?xml version="1.0" standalone="no"?>
<!DOCTYPE svg PUBLIC "-//W3C//DTD SVG 20010904//EN"
 "http://www.w3.org/TR/2001/REC-SVG-20010904/DTD/svg10.dtd">
<svg version="1.0" xmlns="http://www.w3.org/2000/svg"
 width="225.000000pt" height="225.000000pt" viewBox="0 0 225.000000 225.000000"
 preserveAspectRatio="xMidYMid meet">
<metadata>
Created by potrace 1.16, written by Peter Selinger 2001-2019
</metadata>
<g transform="translate(0.000000,225.000000) scale(0.100000,-0.100000)"
fill="#000000" stroke="none">
<path d="M1020 2244 c-245 -35 -398 -94 -560 -215 -438 -327 -581 -906 -345
-1395 121 -251 351 -462 610 -559 353 -134 765 -78 1061 143 636 474 611 1410
-50 1850 -81 53 -217 114 -319 142 -115 31 -302 47 -397 34z m-119 -592 l7
-212 -39 -39 c-34 -34 -39 -44 -39 -85 0 -40 15 -76 94 -229 140 -273 175
-329 218 -350 31 -15 43 -16 82 -6 l46 11 97 -77 c54 -42 128 -100 165 -129
37 -28 67 -54 67 -58 1 -11 -85 -53 -157 -77 -71 -24 -177 -27 -235 -7 -148
53 -365 275 -496 509 -69 121 -113 303 -132 539 -13 163 -7 210 37 285 36 62
134 122 224 136 57 10 55 19 61 -211z m104 195 l40 -23 3 -166 2 -166 -26 -21
c-28 -22 -71 -37 -80 -28 -3 2 -8 100 -11 216 -6 203 -5 211 13 211 10 0 37
-11 59 -23z m434 -1038 c55 -34 222 -169 228 -185 7 -18 -15 -124 -25 -124
-11 0 -347 273 -344 279 4 8 85 50 97 51 6 0 25 -9 44 -21z"/>
</g>
</svg>
