<?xml version="1.0" standalone="no"?>
<!DOCTYPE svg PUBLIC "-//W3C//DTD SVG 20010904//EN"
 "http://www.w3.org/TR/2001/REC-SVG-20010904/DTD/svg10.dtd">
<svg version="1.0" xmlns="http://www.w3.org/2000/svg"
 width="225.000000pt" height="225.000000pt" viewBox="0 0 225.000000 225.000000"
 preserveAspectRatio="xMidYMid meet">
<metadata>
Created by potrace 1.16, written by Peter Selinger 2001-2019
</metadata>
<g transform="translate(0.000000,225.000000) scale(0.100000,-0.100000)"
fill="#000000" stroke="none">
<path d="M1030 1680 c-73 -16 -167 -68 -226 -125 -142 -139 -175 -359 -80
-540 33 -63 153 -195 178 -195 18 0 38 20 38 38 0 7 -32 47 -71 88 -99 104
-124 161 -124 284 0 86 3 101 31 160 58 120 165 200 297 223 79 13 176 -7 251
-54 56 -34 89 -35 94 -2 4 28 -56 73 -136 103 -63 24 -186 34 -252 20z"/>
<path d="M1417 1514 c-13 -14 -7 -42 26 -110 28 -60 32 -79 32 -149 0 -91 -18
-137 -72 -190 -66 -64 -98 -53 -97 32 1 68 32 175 68 232 15 22 26 43 26 46 0
10 -61 5 -93 -9 -18 -7 -40 -22 -49 -32 -21 -24 -53 -112 -67 -184 -15 -73
-36 -104 -118 -171 -111 -90 -133 -136 -133 -276 l0 -83 184 0 183 0 7 46 c12
91 29 127 91 194 75 80 117 141 147 211 30 73 32 239 4 315 -30 81 -67 129
-102 132 -16 2 -33 0 -37 -4z"/>
<path d="M924 575 c-4 -8 -4 -22 0 -30 5 -13 34 -15 203 -13 l198 3 0 25 0 25
-198 3 c-169 2 -198 0 -203 -13z"/>
<path d="M924 485 c-4 -8 -1 -22 6 -30 18 -22 372 -22 390 0 7 8 10 22 6 30
-8 23 -394 23 -402 0z"/>
</g>
</svg>
