<?xml version="1.0" standalone="no"?>
<!DOCTYPE svg PUBLIC "-//W3C//DTD SVG 20010904//EN"
 "http://www.w3.org/TR/2001/REC-SVG-20010904/DTD/svg10.dtd">
<svg version="1.0" xmlns="http://www.w3.org/2000/svg"
 width="225.000000pt" height="225.000000pt" viewBox="0 0 225.000000 225.000000"
 preserveAspectRatio="xMidYMid meet">
<metadata>
Created by potrace 1.16, written by Peter Selinger 2001-2019
</metadata>
<g transform="translate(0.000000,225.000000) scale(0.100000,-0.100000)"
fill="#000000" stroke="none">
<path d="M449 2221 c-160 -51 -282 -200 -305 -370 l-7 -51 37 0 c20 0 36 1 36
3 0 31 27 132 45 167 50 98 166 183 272 197 52 7 63 15 63 51 0 19 -5 22 -42
21 -24 0 -68 -8 -99 -18z"/>
<path d="M1823 2109 c-188 -31 -466 -202 -781 -481 l-103 -92 248 -248 c136
-136 250 -248 253 -247 3 0 44 44 92 97 361 401 554 787 463 926 -27 41 -92
58 -172 45z"/>
<path d="M483 2074 c-88 -32 -172 -138 -186 -236 -6 -38 -5 -38 29 -38 29 0
34 3 34 24 0 87 91 182 192 201 33 6 37 10 35 36 -2 25 -6 29 -32 28 -16 0
-49 -7 -72 -15z"/>
<path d="M2020 1834 c-164 -510 -999 -1333 -1500 -1480 -42 -13 -38 -13 70
-10 128 4 188 18 333 76 323 130 681 436 900 770 73 112 163 303 192 410 24
87 47 300 32 300 -3 0 -15 -30 -27 -66z"/>
<path d="M593 1815 c-29 -20 -46 -75 -34 -108 13 -33 48 -57 86 -57 26 0 73
-43 375 -345 l344 -345 28 27 c15 15 28 31 28 36 0 6 -152 162 -337 349 -294
294 -339 343 -344 375 -12 69 -91 106 -146 68z"/>
<path d="M774 1362 c-277 -303 -476 -626 -499 -814 -18 -142 67 -205 227 -168
186 43 516 257 779 506 l66 63 -244 243 c-133 134 -246 244 -250 245 -5 2 -40
-32 -79 -75z"/>
<path d="M1538 805 c-54 -52 -98 -101 -98 -110 0 -12 17 -15 100 -15 l100 0 0
110 c0 61 -1 110 -2 110 -2 -1 -47 -43 -100 -95z"/>
<path d="M1385 523 c-26 -82 -53 -168 -61 -192 -24 -76 -40 -71 222 -71 184 0
235 3 231 13 -2 6 -31 99 -63 204 l-59 193 -112 0 -112 0 -46 -147z"/>
<path d="M1095 214 c-68 -37 -114 -106 -115 -171 l0 -33 566 0 566 0 -7 37
c-11 65 -45 123 -88 151 l-41 27 -425 2 c-374 2 -430 1 -456 -13z"/>
</g>
</svg>
