<?xml version="1.0" standalone="no"?>
<!DOCTYPE svg PUBLIC "-//W3C//DTD SVG 20010904//EN"
 "http://www.w3.org/TR/2001/REC-SVG-20010904/DTD/svg10.dtd">
<svg version="1.0" xmlns="http://www.w3.org/2000/svg"
 width="224.000000pt" height="224.000000pt" viewBox="0 0 224.000000 224.000000"
 preserveAspectRatio="xMidYMid meet">

<g transform="translate(0.000000,224.000000) scale(0.100000,-0.100000)"
fill="#000000" stroke="none">
<path d="M945 2144 c-564 -101 -945 -635 -850 -1190 77 -448 411 -782 859
-859 497 -85 996 219 1154 705 84 258 63 536 -60 785 -98 197 -268 367 -462
462 -206 101 -429 135 -641 97z m420 -73 c88 -23 239 -92 311 -142 67 -46 178
-153 231 -223 59 -79 137 -239 165 -341 18 -67 22 -106 22 -245 0 -193 -16
-266 -89 -418 -55 -115 -90 -165 -173 -253 -88 -94 -168 -153 -287 -210 -158
-77 -229 -93 -425 -93 -196 0 -267 16 -425 93 -119 57 -199 116 -287 210 -83
88 -118 138 -173 253 -73 152 -89 225 -89 418 0 193 16 266 89 418 55 115 90
165 173 253 143 152 321 251 528 294 101 21 325 14 429 -14z"/>
<path d="M569 1859 c-73 -43 -69 -4 -69 -719 0 -722 -4 -682 75 -720 38 -18
63 -20 287 -20 l246 0 -42 81 c-40 80 -41 83 -41 185 l0 104 -217 0 -218 0 0
460 0 460 370 0 370 0 0 -301 0 -301 23 6 c12 3 32 6 45 6 l23 0 -3 344 c-3
330 -4 346 -24 373 -45 62 -54 63 -439 63 -337 0 -351 -1 -386 -21z m571 -74
l0 -25 -182 2 c-181 3 -183 3 -186 26 l-3 22 185 0 186 0 0 -25z"/>
<path d="M1335 1017 c-89 -30 -180 -110 -217 -193 -81 -184 -3 -391 180 -477
160 -75 355 -18 450 130 95 148 73 333 -54 453 -74 70 -129 93 -234 97 -52 2
-101 -2 -125 -10z m60 -188 c61 -58 52 -59 133 14 45 40 58 42 76 14 9 -14 0
-28 -52 -80 -81 -82 -81 -97 -2 -97 47 0 62 -4 67 -16 9 -25 -24 -44 -79 -44
-41 0 -48 -3 -48 -20 0 -18 7 -20 54 -20 56 0 83 -17 72 -45 -4 -11 -21 -15
-64 -15 -58 0 -60 -1 -65 -30 -6 -25 -11 -30 -37 -30 -26 0 -31 5 -36 30 -6
29 -9 30 -59 30 -36 0 -57 5 -66 16 -20 24 13 44 73 44 41 0 48 3 48 20 0 17
-7 20 -49 20 -53 0 -84 19 -75 45 5 11 22 15 65 15 77 0 78 17 4 90 -51 50
-67 85 -48 103 15 15 37 4 88 -44z"/>
</g>
</svg>
